<?xml version="1.0" encoding="UTF-8" standalone="no"?>
<!DOCTYPE svg PUBLIC "-//W3C//DTD SVG 1.1//EN"
 "http://www.w3.org/Graphics/SVG/1.1/DTD/svg11.dtd">
<!-- Generated by graphviz version 2.43.0 (0)
 -->
<!-- Title: %3 Pages: 1 -->
<svg width="2806pt" height="1818pt"
 viewBox="0.00 0.00 2806.00 1818.00" xmlns="http://www.w3.org/2000/svg" xmlns:xlink="http://www.w3.org/1999/xlink">
<g id="graph0" class="graph" transform="scale(1 1) rotate(0) translate(4 1814)">
<title>%3</title>
<g id="clust1" class="cluster">
<title>cluster_0</title>
<polygon fill="#cdaa7d" stroke="black" points="1473,-1633 1473,-1802 2124,-1802 2124,-1633 1473,-1633"/>
<text text-anchor="middle" x="1798.5" y="-1786.8" font-family="Times,serif" font-size="14.00">Bartlett\CompatInfo\Application\DataCollector\ErrorHandler</text>
</g>
<g id="clust2" class="cluster">
<title>cluster_1</title>
<polygon fill="transparent" stroke="black" points="192,-359 192,-1625 1218,-1625 1218,-359 192,-359"/>
<text text-anchor="middle" x="705" y="-1609.8" font-family="Times,serif" font-size="14.00">Doctrine\Common\Collections</text>
</g>
<g id="clust3" class="cluster">
<title>cluster_2</title>
<polygon fill="transparent" stroke="black" points="8,-8 8,-314.5 733,-314.5 733,-8 8,-8"/>
<text text-anchor="middle" x="370.5" y="-299.3" font-family="Times,serif" font-size="14.00">0</text>
</g>
<g id="clust4" class="cluster">
<title>cluster_3</title>
<polygon fill="#cdaa7d" stroke="black" points="1226,-98 1226,-1463.5 2100,-1463.5 2100,-98 1226,-98"/>
<text text-anchor="middle" x="1663" y="-1448.3" font-family="Times,serif" font-size="14.00">Bartlett\CompatInfo\Application\DataCollector</text>
</g>
<g id="clust5" class="cluster">
<title>cluster_4</title>
<polygon fill="transparent" stroke="black" points="2108,-577.5 2108,-689.5 2514,-689.5 2514,-577.5 2108,-577.5"/>
<text text-anchor="middle" x="2311" y="-674.3" font-family="Times,serif" font-size="14.00">PhpParser</text>
</g>
<g id="clust6" class="cluster">
<title>cluster_5</title>
<polygon fill="#cdaa7d" stroke="black" points="2205,-1652 2205,-1783 2693,-1783 2693,-1652 2205,-1652"/>
<text text-anchor="middle" x="2449" y="-1767.8" font-family="Times,serif" font-size="14.00">Bartlett\CompatInfo\Application\DataCollector\Normalizer</text>
</g>
<g id="clust7" class="cluster">
<title>cluster_6</title>
<polygon fill="transparent" stroke="black" points="2108,-1199.5 2108,-1330.5 2790,-1330.5 2790,-1199.5 2108,-1199.5"/>
<text text-anchor="middle" x="2449" y="-1315.3" font-family="Times,serif" font-size="14.00">Symfony\Component\Serializer\Normalizer</text>
</g>
<!-- Bartlett\\CompatInfo\\Application\\DataCollector\\ErrorHandler\\Collecting -->
<g id="node1" class="node">
<title>Bartlett\\CompatInfo\\Application\\DataCollector\\ErrorHandler\\Collecting</title>
<polygon fill="#fefece" stroke="transparent" points="1789.5,-1771 1480.5,-1771 1480.5,-1641 1789.5,-1641 1789.5,-1771"/>
<polygon fill="#eeeeee" stroke="transparent" points="1489,-1733 1489,-1767 1782,-1767 1782,-1733 1489,-1733"/>
<polygon fill="none" stroke="black" points="1489,-1733 1489,-1767 1782,-1767 1782,-1733 1489,-1733"/>
<text text-anchor="start" x="1595" y="-1739.8" font-family="Times,serif" font-weight="bold" font-size="14.00">Collecting</text>
<polygon fill="none" stroke="black" points="1489,-1727 1489,-1733 1782,-1733 1782,-1727 1489,-1727"/>
<polygon fill="none" stroke="black" points="1489,-1645 1489,-1727 1782,-1727 1782,-1645 1489,-1645"/>
<text text-anchor="start" x="1494" y="-1710.8" font-family="Times,serif" font-size="14.00">+ handleError(error : PhpParser\Error)</text>
<text text-anchor="start" x="1494" y="-1691.8" font-family="Times,serif" font-size="14.00">+ getErrors() : array</text>
<text text-anchor="start" x="1494" y="-1672.8" font-family="Times,serif" font-size="14.00">+ hasErrors() : bool</text>
<text text-anchor="start" x="1494" y="-1653.8" font-family="Times,serif" font-size="14.00">+ clearErrors() : void</text>
</g>
<!-- Doctrine\\Common\\Collections\\ArrayCollection -->
<g id="node3" class="node">
<title>Doctrine\\Common\\Collections\\ArrayCollection</title>
<polygon fill="#fefece" stroke="transparent" points="1169.5,-1594 710.5,-1594 710.5,-913 1169.5,-913 1169.5,-1594"/>
<polygon fill="#eeeeee" stroke="transparent" points="719,-1555.5 719,-1589.5 1162,-1589.5 1162,-1555.5 719,-1555.5"/>
<polygon fill="none" stroke="black" points="719,-1555.5 719,-1589.5 1162,-1589.5 1162,-1555.5 719,-1555.5"/>
<text text-anchor="start" x="879" y="-1562.3" font-family="Times,serif" font-weight="bold" font-size="14.00">ArrayCollection</text>
<polygon fill="none" stroke="black" points="719,-1549.5 719,-1555.5 1162,-1555.5 1162,-1549.5 719,-1549.5"/>
<polygon fill="none" stroke="black" points="719,-916.5 719,-1549.5 1162,-1549.5 1162,-916.5 719,-916.5"/>
<text text-anchor="start" x="724" y="-1533.3" font-family="Times,serif" font-size="14.00">+ __construct(elements : array = [])</text>
<text text-anchor="start" x="724" y="-1514.3" font-family="Times,serif" font-size="14.00">+ toArray()</text>
<text text-anchor="start" x="724" y="-1495.3" font-family="Times,serif" font-size="14.00">+ first()</text>
<text text-anchor="start" x="724" y="-1476.3" font-family="Times,serif" font-size="14.00">+ last()</text>
<text text-anchor="start" x="724" y="-1457.3" font-family="Times,serif" font-size="14.00">+ key()</text>
<text text-anchor="start" x="724" y="-1438.3" font-family="Times,serif" font-size="14.00">+ next()</text>
<text text-anchor="start" x="724" y="-1419.3" font-family="Times,serif" font-size="14.00">+ current()</text>
<text text-anchor="start" x="724" y="-1400.3" font-family="Times,serif" font-size="14.00">+ remove(key)</text>
<text text-anchor="start" x="724" y="-1381.3" font-family="Times,serif" font-size="14.00">+ removeElement(element)</text>
<text text-anchor="start" x="724" y="-1362.3" font-family="Times,serif" font-size="14.00">+ offsetExists(offset)</text>
<text text-anchor="start" x="724" y="-1343.3" font-family="Times,serif" font-size="14.00">+ offsetGet(offset)</text>
<text text-anchor="start" x="724" y="-1324.3" font-family="Times,serif" font-size="14.00">+ offsetSet(offset, value)</text>
<text text-anchor="start" x="724" y="-1305.3" font-family="Times,serif" font-size="14.00">+ offsetUnset(offset)</text>
<text text-anchor="start" x="724" y="-1286.3" font-family="Times,serif" font-size="14.00">+ containsKey(key)</text>
<text text-anchor="start" x="724" y="-1267.3" font-family="Times,serif" font-size="14.00">+ contains(element)</text>
<text text-anchor="start" x="724" y="-1248.3" font-family="Times,serif" font-size="14.00">+ exists(p : Closure)</text>
<text text-anchor="start" x="724" y="-1229.3" font-family="Times,serif" font-size="14.00">+ indexOf(element)</text>
<text text-anchor="start" x="724" y="-1210.3" font-family="Times,serif" font-size="14.00">+ get(key)</text>
<text text-anchor="start" x="724" y="-1191.3" font-family="Times,serif" font-size="14.00">+ getKeys()</text>
<text text-anchor="start" x="724" y="-1172.3" font-family="Times,serif" font-size="14.00">+ getValues()</text>
<text text-anchor="start" x="724" y="-1153.3" font-family="Times,serif" font-size="14.00">+ count()</text>
<text text-anchor="start" x="724" y="-1134.3" font-family="Times,serif" font-size="14.00">+ set(key, value)</text>
<text text-anchor="start" x="724" y="-1115.3" font-family="Times,serif" font-size="14.00">+ add(element)</text>
<text text-anchor="start" x="724" y="-1096.3" font-family="Times,serif" font-size="14.00">+ isEmpty()</text>
<text text-anchor="start" x="724" y="-1077.3" font-family="Times,serif" font-size="14.00">+ getIterator()</text>
<text text-anchor="start" x="724" y="-1058.3" font-family="Times,serif" font-size="14.00">+ map(func : Closure)</text>
<text text-anchor="start" x="724" y="-1039.3" font-family="Times,serif" font-size="14.00">+ filter(p : Closure)</text>
<text text-anchor="start" x="724" y="-1020.3" font-family="Times,serif" font-size="14.00">+ forAll(p : Closure)</text>
<text text-anchor="start" x="724" y="-1001.3" font-family="Times,serif" font-size="14.00">+ partition(p : Closure)</text>
<text text-anchor="start" x="724" y="-982.3" font-family="Times,serif" font-size="14.00">+ __toString()</text>
<text text-anchor="start" x="724" y="-963.3" font-family="Times,serif" font-size="14.00">+ clear()</text>
<text text-anchor="start" x="724" y="-944.3" font-family="Times,serif" font-size="14.00">+ slice(offset, length = «unknown»)</text>
<text text-anchor="start" x="724" y="-925.3" font-family="Times,serif" font-size="14.00">+ matching(criteria : Doctrine\Common\Collections\Criteria)</text>
</g>
<!-- Bartlett\\CompatInfo\\Application\\DataCollector\\ErrorHandler\\Collecting&#45;&gt;Doctrine\\Common\\Collections\\ArrayCollection -->
<g id="edge7" class="edge">
<title>Bartlett\\CompatInfo\\Application\\DataCollector\\ErrorHandler\\Collecting&#45;&gt;Doctrine\\Common\\Collections\\ArrayCollection</title>
<path fill="none" stroke="black" d="M1480.47,-1686.7C1381.9,-1672.83 1264.89,-1651.64 1222,-1625 1206.65,-1615.46 1191.82,-1604.77 1177.55,-1593.19"/>
<polygon fill="none" stroke="black" points="1179.62,-1590.35 1169.69,-1586.66 1175.15,-1595.74 1179.62,-1590.35"/>
</g>
<!-- Bartlett\\CompatInfo\\Application\\DataCollector\\ErrorHandler -->
<g id="node10" class="node">
<title>Bartlett\\CompatInfo\\Application\\DataCollector\\ErrorHandler</title>
<polygon fill="#fefece" stroke="transparent" points="2091.5,-1309 1832.5,-1309 1832.5,-1198 2091.5,-1198 2091.5,-1309"/>
<polygon fill="#eeeeee" stroke="transparent" points="1841,-1270.5 1841,-1304.5 2084,-1304.5 2084,-1270.5 1841,-1270.5"/>
<polygon fill="none" stroke="black" points="1841,-1270.5 1841,-1304.5 2084,-1304.5 2084,-1270.5 1841,-1270.5"/>
<text text-anchor="start" x="1917.5" y="-1291.3" font-family="Times,serif" font-weight="bold" font-size="14.00">«interface»</text>
<text text-anchor="start" x="1909" y="-1277.3" font-family="Times,serif" font-weight="bold" font-size="14.00">ErrorHandler</text>
<polygon fill="none" stroke="black" points="1841,-1264.5 1841,-1270.5 2084,-1270.5 2084,-1264.5 1841,-1264.5"/>
<polygon fill="none" stroke="black" points="1841,-1201.5 1841,-1264.5 2084,-1264.5 2084,-1201.5 1841,-1201.5"/>
<text text-anchor="start" x="1846" y="-1248.3" font-family="Times,serif" font-size="14.00">+ «abstract» getErrors() : array</text>
<text text-anchor="start" x="1846" y="-1229.3" font-family="Times,serif" font-size="14.00">+ «abstract» hasErrors() : bool</text>
<text text-anchor="start" x="1846" y="-1210.3" font-family="Times,serif" font-size="14.00">+ «abstract» clearErrors() : void</text>
</g>
<!-- Bartlett\\CompatInfo\\Application\\DataCollector\\ErrorHandler\\Collecting&#45;&gt;Bartlett\\CompatInfo\\Application\\DataCollector\\ErrorHandler -->
<g id="edge9" class="edge">
<title>Bartlett\\CompatInfo\\Application\\DataCollector\\ErrorHandler\\Collecting&#45;&gt;Bartlett\\CompatInfo\\Application\\DataCollector\\ErrorHandler</title>
<path fill="none" stroke="black" stroke-dasharray="5,2" d="M1778.64,-1640.93C1785.5,-1638.19 1792.31,-1635.53 1799,-1633 1809.91,-1628.87 1815.56,-1633.05 1824,-1625 1910.28,-1542.67 1943.01,-1401.42 1955.14,-1319.16"/>
<polygon fill="none" stroke="black" points="1958.61,-1319.58 1956.55,-1309.18 1951.68,-1318.59 1958.61,-1319.58"/>
</g>
<!-- Bartlett\\CompatInfo\\Application\\DataCollector\\ErrorHandler\\Throwing -->
<g id="node2" class="node">
<title>Bartlett\\CompatInfo\\Application\\DataCollector\\ErrorHandler\\Throwing</title>
<polygon fill="#fefece" stroke="transparent" points="2116.5,-1771 1807.5,-1771 1807.5,-1641 2116.5,-1641 2116.5,-1771"/>
<polygon fill="#eeeeee" stroke="transparent" points="1816,-1733 1816,-1767 2109,-1767 2109,-1733 1816,-1733"/>
<polygon fill="none" stroke="black" points="1816,-1733 1816,-1767 2109,-1767 2109,-1733 1816,-1733"/>
<text text-anchor="start" x="1924.5" y="-1739.8" font-family="Times,serif" font-weight="bold" font-size="14.00">Throwing</text>
<polygon fill="none" stroke="black" points="1816,-1727 1816,-1733 2109,-1733 2109,-1727 1816,-1727"/>
<polygon fill="none" stroke="black" points="1816,-1645 1816,-1727 2109,-1727 2109,-1645 1816,-1645"/>
<text text-anchor="start" x="1821" y="-1710.8" font-family="Times,serif" font-size="14.00">+ handleError(error : PhpParser\Error)</text>
<text text-anchor="start" x="1821" y="-1691.8" font-family="Times,serif" font-size="14.00">+ hasErrors() : bool</text>
<text text-anchor="start" x="1821" y="-1672.8" font-family="Times,serif" font-size="14.00">+ getErrors() : array</text>
<text text-anchor="start" x="1821" y="-1653.8" font-family="Times,serif" font-size="14.00">+ clearErrors() : void</text>
</g>
<!-- Bartlett\\CompatInfo\\Application\\DataCollector\\ErrorHandler\\Throwing&#45;&gt;Bartlett\\CompatInfo\\Application\\DataCollector\\ErrorHandler -->
<g id="edge10" class="edge">
<title>Bartlett\\CompatInfo\\Application\\DataCollector\\ErrorHandler\\Throwing&#45;&gt;Bartlett\\CompatInfo\\Application\\DataCollector\\ErrorHandler</title>
<path fill="none" stroke="black" stroke-dasharray="5,2" d="M1962,-1640.93C1962,-1555.5 1962,-1405.09 1962,-1319.29"/>
<polygon fill="none" stroke="black" points="1965.5,-1319.16 1962,-1309.16 1958.5,-1319.16 1965.5,-1319.16"/>
</g>
<!-- Doctrine\\Common\\Collections\\Collection -->
<g id="node4" class="node">
<title>Doctrine\\Common\\Collections\\Collection</title>
<polygon fill="#fefece" stroke="transparent" points="652.5,-877 199.5,-877 199.5,-367 652.5,-367 652.5,-877"/>
<polygon fill="#eeeeee" stroke="transparent" points="208,-839 208,-873 645,-873 645,-839 208,-839"/>
<polygon fill="none" stroke="black" points="208,-839 208,-873 645,-873 645,-839 208,-839"/>
<text text-anchor="start" x="381.5" y="-859.8" font-family="Times,serif" font-weight="bold" font-size="14.00">«interface»</text>
<text text-anchor="start" x="386.5" y="-845.8" font-family="Times,serif" font-weight="bold" font-size="14.00">Collection</text>
<polygon fill="none" stroke="black" points="208,-833 208,-839 645,-839 645,-833 208,-833"/>
<polygon fill="none" stroke="black" points="208,-371 208,-833 645,-833 645,-371 208,-371"/>
<text text-anchor="start" x="213" y="-816.8" font-family="Times,serif" font-size="14.00">+ «abstract» add(element : mixed)</text>
<text text-anchor="start" x="213" y="-797.8" font-family="Times,serif" font-size="14.00">+ «abstract» clear()</text>
<text text-anchor="start" x="213" y="-778.8" font-family="Times,serif" font-size="14.00">+ «abstract» contains(element : mixed)</text>
<text text-anchor="start" x="213" y="-759.8" font-family="Times,serif" font-size="14.00">+ «abstract» isEmpty()</text>
<text text-anchor="start" x="213" y="-740.8" font-family="Times,serif" font-size="14.00">+ «abstract» remove(key : mixed)</text>
<text text-anchor="start" x="213" y="-721.8" font-family="Times,serif" font-size="14.00">+ «abstract» removeElement(element : mixed)</text>
<text text-anchor="start" x="213" y="-702.8" font-family="Times,serif" font-size="14.00">+ «abstract» containsKey(key : mixed)</text>
<text text-anchor="start" x="213" y="-683.8" font-family="Times,serif" font-size="14.00">+ «abstract» get(key : mixed)</text>
<text text-anchor="start" x="213" y="-664.8" font-family="Times,serif" font-size="14.00">+ «abstract» getKeys()</text>
<text text-anchor="start" x="213" y="-645.8" font-family="Times,serif" font-size="14.00">+ «abstract» getValues()</text>
<text text-anchor="start" x="213" y="-626.8" font-family="Times,serif" font-size="14.00">+ «abstract» set(key : mixed, value : mixed)</text>
<text text-anchor="start" x="213" y="-607.8" font-family="Times,serif" font-size="14.00">+ «abstract» toArray()</text>
<text text-anchor="start" x="213" y="-588.8" font-family="Times,serif" font-size="14.00">+ «abstract» first()</text>
<text text-anchor="start" x="213" y="-569.8" font-family="Times,serif" font-size="14.00">+ «abstract» last()</text>
<text text-anchor="start" x="213" y="-550.8" font-family="Times,serif" font-size="14.00">+ «abstract» key()</text>
<text text-anchor="start" x="213" y="-531.8" font-family="Times,serif" font-size="14.00">+ «abstract» current()</text>
<text text-anchor="start" x="213" y="-512.8" font-family="Times,serif" font-size="14.00">+ «abstract» next()</text>
<text text-anchor="start" x="213" y="-493.8" font-family="Times,serif" font-size="14.00">+ «abstract» exists(p : Closure)</text>
<text text-anchor="start" x="213" y="-474.8" font-family="Times,serif" font-size="14.00">+ «abstract» filter(p : Closure)</text>
<text text-anchor="start" x="213" y="-455.8" font-family="Times,serif" font-size="14.00">+ «abstract» forAll(p : Closure)</text>
<text text-anchor="start" x="213" y="-436.8" font-family="Times,serif" font-size="14.00">+ «abstract» map(func : Closure)</text>
<text text-anchor="start" x="213" y="-417.8" font-family="Times,serif" font-size="14.00">+ «abstract» partition(p : Closure)</text>
<text text-anchor="start" x="213" y="-398.8" font-family="Times,serif" font-size="14.00">+ «abstract» indexOf(element : mixed)</text>
<text text-anchor="start" x="213" y="-379.8" font-family="Times,serif" font-size="14.00">+ «abstract» slice(offset : int, length : mixed = «unknown»)</text>
</g>
<!-- Doctrine\\Common\\Collections\\ArrayCollection&#45;&gt;Doctrine\\Common\\Collections\\Collection -->
<g id="edge5" class="edge">
<title>Doctrine\\Common\\Collections\\ArrayCollection&#45;&gt;Doctrine\\Common\\Collections\\Collection</title>
<path fill="none" stroke="black" stroke-dasharray="5,2" d="M710.44,-971.35C687.08,-942.75 663.43,-913.78 640.25,-885.39"/>
<polygon fill="none" stroke="black" points="642.76,-882.93 633.72,-877.4 637.34,-887.36 642.76,-882.93"/>
</g>
<!-- Doctrine\\Common\\Collections\\Selectable -->
<g id="node5" class="node">
<title>Doctrine\\Common\\Collections\\Selectable</title>
<polygon fill="#fefece" stroke="transparent" points="1209.5,-658.5 670.5,-658.5 670.5,-585.5 1209.5,-585.5 1209.5,-658.5"/>
<polygon fill="#eeeeee" stroke="transparent" points="679,-620 679,-654 1202,-654 1202,-620 679,-620"/>
<polygon fill="none" stroke="black" points="679,-620 679,-654 1202,-654 1202,-620 679,-620"/>
<text text-anchor="start" x="895.5" y="-640.8" font-family="Times,serif" font-weight="bold" font-size="14.00">«interface»</text>
<text text-anchor="start" x="899.5" y="-626.8" font-family="Times,serif" font-weight="bold" font-size="14.00">Selectable</text>
<polygon fill="none" stroke="black" points="679,-614 679,-620 1202,-620 1202,-614 679,-614"/>
<polygon fill="none" stroke="black" points="679,-589 679,-614 1202,-614 1202,-589 679,-589"/>
<text text-anchor="start" x="684" y="-597.8" font-family="Times,serif" font-size="14.00">+ «abstract» matching(criteria : Doctrine\Common\Collections\Criteria)</text>
</g>
<!-- Doctrine\\Common\\Collections\\ArrayCollection&#45;&gt;Doctrine\\Common\\Collections\\Selectable -->
<g id="edge6" class="edge">
<title>Doctrine\\Common\\Collections\\ArrayCollection&#45;&gt;Doctrine\\Common\\Collections\\Selectable</title>
<path fill="none" stroke="black" stroke-dasharray="5,2" d="M940,-912.88C940,-815.97 940,-722.23 940,-668.7"/>
<polygon fill="none" stroke="black" points="943.5,-668.55 940,-658.55 936.5,-668.55 943.5,-668.55"/>
</g>
<!-- Countable -->
<g id="node6" class="node">
<title>Countable</title>
<polygon fill="#fefece" stroke="transparent" points="725,-255 551,-255 551,-182 725,-182 725,-255"/>
<polygon fill="#eeeeee" stroke="transparent" points="559,-216.5 559,-250.5 717,-250.5 717,-216.5 559,-216.5"/>
<polygon fill="none" stroke="black" points="559,-216.5 559,-250.5 717,-250.5 717,-216.5 559,-216.5"/>
<text text-anchor="start" x="593" y="-237.3" font-family="Times,serif" font-weight="bold" font-size="14.00">«interface»</text>
<text text-anchor="start" x="597" y="-223.3" font-family="Times,serif" font-weight="bold" font-size="14.00">Countable</text>
<polygon fill="none" stroke="black" points="559,-210.5 559,-216.5 717,-216.5 717,-210.5 559,-210.5"/>
<polygon fill="none" stroke="black" points="559,-185.5 559,-210.5 717,-210.5 717,-185.5 559,-185.5"/>
<text text-anchor="start" x="564" y="-194.3" font-family="Times,serif" font-size="14.00">+ «abstract» count()</text>
</g>
<!-- Doctrine\\Common\\Collections\\Collection&#45;&gt;Countable -->
<g id="edge1" class="edge">
<title>Doctrine\\Common\\Collections\\Collection&#45;&gt;Countable</title>
<path fill="none" stroke="black" stroke-dasharray="5,2" d="M560.26,-366.72C581.07,-327.33 600.3,-290.9 614.43,-264.13"/>
<polygon fill="none" stroke="black" points="617.64,-265.56 619.21,-255.08 611.45,-262.29 617.64,-265.56"/>
</g>
<!-- IteratorAggregate -->
<g id="node7" class="node">
<title>IteratorAggregate</title>
<polygon fill="#fefece" stroke="transparent" points="532.5,-255 319.5,-255 319.5,-182 532.5,-182 532.5,-255"/>
<polygon fill="#eeeeee" stroke="transparent" points="328,-216.5 328,-250.5 525,-250.5 525,-216.5 328,-216.5"/>
<polygon fill="none" stroke="black" points="328,-216.5 328,-250.5 525,-250.5 525,-216.5 328,-216.5"/>
<text text-anchor="start" x="381.5" y="-237.3" font-family="Times,serif" font-weight="bold" font-size="14.00">«interface»</text>
<text text-anchor="start" x="354.5" y="-223.3" font-family="Times,serif" font-weight="bold" font-size="14.00">IteratorAggregate</text>
<polygon fill="none" stroke="black" points="328,-210.5 328,-216.5 525,-216.5 525,-210.5 328,-210.5"/>
<polygon fill="none" stroke="black" points="328,-185.5 328,-210.5 525,-210.5 525,-185.5 328,-185.5"/>
<text text-anchor="start" x="333" y="-194.3" font-family="Times,serif" font-size="14.00">+ «abstract» getIterator()</text>
</g>
<!-- Doctrine\\Common\\Collections\\Collection&#45;&gt;IteratorAggregate -->
<g id="edge3" class="edge">
<title>Doctrine\\Common\\Collections\\Collection&#45;&gt;IteratorAggregate</title>
<path fill="none" stroke="black" stroke-dasharray="5,2" d="M426,-366.72C426,-327.84 426,-291.85 426,-265.19"/>
<polygon fill="none" stroke="black" points="429.5,-265.08 426,-255.08 422.5,-265.08 429.5,-265.08"/>
</g>
<!-- ArrayAccess -->
<g id="node9" class="node">
<title>ArrayAccess</title>
<polygon fill="#fefece" stroke="transparent" points="301.5,-283.5 16.5,-283.5 16.5,-153.5 301.5,-153.5 301.5,-283.5"/>
<polygon fill="#eeeeee" stroke="transparent" points="25,-245.5 25,-279.5 294,-279.5 294,-245.5 25,-245.5"/>
<polygon fill="none" stroke="black" points="25,-245.5 25,-279.5 294,-279.5 294,-245.5 25,-245.5"/>
<text text-anchor="start" x="114.5" y="-266.3" font-family="Times,serif" font-weight="bold" font-size="14.00">«interface»</text>
<text text-anchor="start" x="111.5" y="-252.3" font-family="Times,serif" font-weight="bold" font-size="14.00">ArrayAccess</text>
<polygon fill="none" stroke="black" points="25,-239.5 25,-245.5 294,-245.5 294,-239.5 25,-239.5"/>
<polygon fill="none" stroke="black" points="25,-157.5 25,-239.5 294,-239.5 294,-157.5 25,-157.5"/>
<text text-anchor="start" x="30" y="-223.3" font-family="Times,serif" font-size="14.00">+ «abstract» offsetExists(offset)</text>
<text text-anchor="start" x="30" y="-204.3" font-family="Times,serif" font-size="14.00">+ «abstract» offsetGet(offset)</text>
<text text-anchor="start" x="30" y="-185.3" font-family="Times,serif" font-size="14.00">+ «abstract» offsetSet(offset, value)</text>
<text text-anchor="start" x="30" y="-166.3" font-family="Times,serif" font-size="14.00">+ «abstract» offsetUnset(offset)</text>
</g>
<!-- Doctrine\\Common\\Collections\\Collection&#45;&gt;ArrayAccess -->
<g id="edge4" class="edge">
<title>Doctrine\\Common\\Collections\\Collection&#45;&gt;ArrayAccess</title>
<path fill="none" stroke="black" stroke-dasharray="5,2" d="M256.9,-366.72C239,-339.8 222.01,-314.25 207.37,-292.24"/>
<polygon fill="none" stroke="black" points="210.12,-290.05 201.67,-283.66 204.29,-293.93 210.12,-290.05"/>
</g>
<!-- Traversable -->
<g id="node8" class="node">
<title>Traversable</title>
<polygon fill="#fefece" stroke="transparent" points="483.5,-70 368.5,-70 368.5,-16 483.5,-16 483.5,-70"/>
<polygon fill="#eeeeee" stroke="transparent" points="377,-32 377,-66 476,-66 476,-32 377,-32"/>
<polygon fill="none" stroke="black" points="377,-32 377,-66 476,-66 476,-32 377,-32"/>
<text text-anchor="start" x="381.5" y="-52.8" font-family="Times,serif" font-weight="bold" font-size="14.00">«interface»</text>
<text text-anchor="start" x="380" y="-38.8" font-family="Times,serif" font-weight="bold" font-size="14.00">Traversable</text>
<polygon fill="none" stroke="black" points="377,-26 377,-32 476,-32 476,-26 377,-26"/>
<polygon fill="none" stroke="black" points="377,-20 377,-26 476,-26 476,-20 377,-20"/>
</g>
<!-- IteratorAggregate&#45;&gt;Traversable -->
<g id="edge2" class="edge">
<title>IteratorAggregate&#45;&gt;Traversable</title>
<path fill="none" stroke="black" stroke-dasharray="5,2" d="M426,-181.97C426,-152.26 426,-110.07 426,-80.18"/>
<polygon fill="none" stroke="black" points="429.5,-80.16 426,-70.16 422.5,-80.16 429.5,-80.16"/>
</g>
<!-- PhpParser\\ErrorHandler -->
<g id="node16" class="node">
<title>PhpParser\\ErrorHandler</title>
<polygon fill="#fefece" stroke="transparent" points="2505.5,-658.5 2116.5,-658.5 2116.5,-585.5 2505.5,-585.5 2505.5,-658.5"/>
<polygon fill="#eeeeee" stroke="transparent" points="2125,-620 2125,-654 2498,-654 2498,-620 2125,-620"/>
<polygon fill="none" stroke="black" points="2125,-620 2125,-654 2498,-654 2498,-620 2125,-620"/>
<text text-anchor="start" x="2266.5" y="-640.8" font-family="Times,serif" font-weight="bold" font-size="14.00">«interface»</text>
<text text-anchor="start" x="2258" y="-626.8" font-family="Times,serif" font-weight="bold" font-size="14.00">ErrorHandler</text>
<polygon fill="none" stroke="black" points="2125,-614 2125,-620 2498,-620 2498,-614 2125,-614"/>
<polygon fill="none" stroke="black" points="2125,-589 2125,-614 2498,-614 2498,-589 2125,-589"/>
<text text-anchor="start" x="2130" y="-597.8" font-family="Times,serif" font-size="14.00">+ «abstract» handleError(error : PhpParser\Error)</text>
</g>
<!-- Bartlett\\CompatInfo\\Application\\DataCollector\\ErrorHandler&#45;&gt;PhpParser\\ErrorHandler -->
<g id="edge8" class="edge">
<title>Bartlett\\CompatInfo\\Application\\DataCollector\\ErrorHandler&#45;&gt;PhpParser\\ErrorHandler</title>
<path fill="none" stroke="black" stroke-dasharray="5,2" d="M1980.57,-1197.84C2004.82,-1129.26 2050.54,-1009.01 2104,-913 2155.63,-820.28 2231.02,-721.59 2275.15,-666.57"/>
<polygon fill="none" stroke="black" points="2277.88,-668.76 2281.42,-658.78 2272.42,-664.37 2277.88,-668.76"/>
</g>
<!-- Bartlett\\CompatInfo\\Application\\DataCollector\\DataCollector -->
<g id="node11" class="node">
<title>Bartlett\\CompatInfo\\Application\\DataCollector\\DataCollector</title>
<polygon fill="#fefece" stroke="transparent" points="1979.5,-744 1254.5,-744 1254.5,-500 1979.5,-500 1979.5,-744"/>
<polygon fill="#eeeeee" stroke="transparent" points="1263,-706 1263,-740 1972,-740 1972,-706 1263,-706"/>
<polygon fill="none" stroke="black" points="1263,-706 1263,-740 1972,-740 1972,-706 1263,-706"/>
<text text-anchor="start" x="1575.5" y="-726.8" font-family="Times,serif" font-weight="bold" font-size="14.00">«abstract»</text>
<text text-anchor="start" x="1563" y="-712.8" font-family="Times,serif" font-weight="bold" font-size="14.00">DataCollector</text>
<polygon fill="none" stroke="black" points="1263,-700 1263,-706 1972,-706 1972,-700 1263,-700"/>
<polygon fill="none" stroke="black" points="1263,-504 1263,-700 1972,-700 1972,-504 1263,-504"/>
<text text-anchor="start" x="1268" y="-683.8" font-family="Times,serif" font-size="14.00">+ __construct(visitor : Bartlett\CompatInfo\Application\PhpParser\NodeVisitor\NodeVisitor)</text>
<text text-anchor="start" x="1268" y="-664.8" font-family="Times,serif" font-size="14.00">+ reset() : void</text>
<text text-anchor="start" x="1268" y="-645.8" font-family="Times,serif" font-size="14.00">+ getData() : array</text>
<text text-anchor="start" x="1268" y="-626.8" font-family="Times,serif" font-size="14.00">+ collect(nodes : array) : array</text>
<text text-anchor="start" x="1268" y="-607.8" font-family="Times,serif" font-size="14.00">+ setName(name : string) : Bartlett\CompatInfo\Application\DataCollector\DataCollectorInterface</text>
<text text-anchor="start" x="1268" y="-588.8" font-family="Times,serif" font-size="14.00">+ getName() : string</text>
<text text-anchor="start" x="1268" y="-569.8" font-family="Times,serif" font-size="14.00">+ addFile(file : Symfony\Component\Finder\SplFileInfo) : void</text>
<text text-anchor="start" x="1268" y="-550.8" font-family="Times,serif" font-size="14.00">+ getFiles() : array</text>
<text text-anchor="start" x="1268" y="-531.8" font-family="Times,serif" font-size="14.00">+ addErrors(errors : array) : void</text>
<text text-anchor="start" x="1268" y="-512.8" font-family="Times,serif" font-size="14.00">+ getErrors() : array</text>
</g>
<!-- Bartlett\\CompatInfo\\Application\\DataCollector\\DataCollectorInterface -->
<g id="node12" class="node">
<title>Bartlett\\CompatInfo\\Application\\DataCollector\\DataCollectorInterface</title>
<polygon fill="#fefece" stroke="transparent" points="2039.5,-331 1234.5,-331 1234.5,-106 2039.5,-106 2039.5,-331"/>
<polygon fill="#eeeeee" stroke="transparent" points="1243,-292.5 1243,-326.5 2032,-326.5 2032,-292.5 1243,-292.5"/>
<polygon fill="none" stroke="black" points="1243,-292.5 1243,-326.5 2032,-326.5 2032,-292.5 1243,-292.5"/>
<text text-anchor="start" x="1592.5" y="-313.3" font-family="Times,serif" font-weight="bold" font-size="14.00">«interface»</text>
<text text-anchor="start" x="1547" y="-299.3" font-family="Times,serif" font-weight="bold" font-size="14.00">DataCollectorInterface</text>
<polygon fill="none" stroke="black" points="1243,-286.5 1243,-292.5 2032,-292.5 2032,-286.5 1243,-286.5"/>
<polygon fill="none" stroke="black" points="1243,-109.5 1243,-286.5 2032,-286.5 2032,-109.5 1243,-109.5"/>
<text text-anchor="start" x="1248" y="-270.3" font-family="Times,serif" font-size="14.00">+ «abstract» reset() : void</text>
<text text-anchor="start" x="1248" y="-251.3" font-family="Times,serif" font-size="14.00">+ «abstract» getData() : array</text>
<text text-anchor="start" x="1248" y="-232.3" font-family="Times,serif" font-size="14.00">+ «abstract» collect(nodes : array) : array</text>
<text text-anchor="start" x="1248" y="-213.3" font-family="Times,serif" font-size="14.00">+ «abstract» setName(name : string) : Bartlett\CompatInfo\Application\DataCollector\DataCollectorInterface</text>
<text text-anchor="start" x="1248" y="-194.3" font-family="Times,serif" font-size="14.00">+ «abstract» getName() : string</text>
<text text-anchor="start" x="1248" y="-175.3" font-family="Times,serif" font-size="14.00">+ «abstract» addFile(file : Symfony\Component\Finder\SplFileInfo) : void</text>
<text text-anchor="start" x="1248" y="-156.3" font-family="Times,serif" font-size="14.00">+ «abstract» getFiles() : array</text>
<text text-anchor="start" x="1248" y="-137.3" font-family="Times,serif" font-size="14.00">+ «abstract» addErrors(errors : array) : void</text>
<text text-anchor="start" x="1248" y="-118.3" font-family="Times,serif" font-size="14.00">+ «abstract» getErrors() : array</text>
</g>
<!-- Bartlett\\CompatInfo\\Application\\DataCollector\\DataCollector&#45;&gt;Bartlett\\CompatInfo\\Application\\DataCollector\\DataCollectorInterface -->
<g id="edge12" class="edge">
<title>Bartlett\\CompatInfo\\Application\\DataCollector\\DataCollector&#45;&gt;Bartlett\\CompatInfo\\Application\\DataCollector\\DataCollectorInterface</title>
<path fill="none" stroke="black" stroke-dasharray="5,2" d="M1623.03,-499.99C1625.53,-449.77 1628.43,-391.59 1630.93,-341.29"/>
<polygon fill="none" stroke="black" points="1634.44,-341.17 1631.45,-331.01 1627.45,-340.82 1634.44,-341.17"/>
</g>
<!-- Bartlett\\CompatInfo\\Application\\DataCollector\\RuleUpdater -->
<g id="node13" class="node">
<title>Bartlett\\CompatInfo\\Application\\DataCollector\\RuleUpdater</title>
<polygon fill="#fefece" stroke="transparent" points="1814.5,-1280.5 1691.5,-1280.5 1691.5,-1226.5 1814.5,-1226.5 1814.5,-1280.5"/>
<polygon fill="#eeeeee" stroke="transparent" points="1700,-1242.5 1700,-1276.5 1807,-1276.5 1807,-1242.5 1700,-1242.5"/>
<polygon fill="none" stroke="black" points="1700,-1242.5 1700,-1276.5 1807,-1276.5 1807,-1242.5 1700,-1242.5"/>
<text text-anchor="start" x="1703" y="-1249.3" font-family="Times,serif" font-weight="bold" font-size="14.00">RuleUpdater</text>
<polygon fill="none" stroke="black" points="1700,-1236.5 1700,-1242.5 1807,-1242.5 1807,-1236.5 1700,-1236.5"/>
<polygon fill="none" stroke="black" points="1700,-1230.5 1700,-1236.5 1807,-1236.5 1807,-1230.5 1700,-1230.5"/>
</g>
<!-- Bartlett\\CompatInfo\\Application\\DataCollector\\VersionDataCollector -->
<g id="node14" class="node">
<title>Bartlett\\CompatInfo\\Application\\DataCollector\\VersionDataCollector</title>
<polygon fill="#fefece" stroke="transparent" points="1673.5,-1432.5 1398.5,-1432.5 1398.5,-1074.5 1673.5,-1074.5 1673.5,-1432.5"/>
<polygon fill="#eeeeee" stroke="transparent" points="1407,-1394.5 1407,-1428.5 1666,-1428.5 1666,-1394.5 1407,-1394.5"/>
<polygon fill="none" stroke="black" points="1407,-1394.5 1407,-1428.5 1666,-1428.5 1666,-1394.5 1407,-1394.5"/>
<text text-anchor="start" x="1452.5" y="-1401.3" font-family="Times,serif" font-weight="bold" font-size="14.00">VersionDataCollector</text>
<polygon fill="none" stroke="black" points="1407,-1388.5 1407,-1394.5 1666,-1394.5 1666,-1388.5 1407,-1388.5"/>
<polygon fill="none" stroke="black" points="1407,-1078.5 1407,-1388.5 1666,-1388.5 1666,-1078.5 1407,-1078.5"/>
<text text-anchor="start" x="1412" y="-1372.3" font-family="Times,serif" font-size="14.00">+ __construct(keysAllowed : array)</text>
<text text-anchor="start" x="1412" y="-1353.3" font-family="Times,serif" font-size="14.00">+ collect(nodes : array) : array</text>
<text text-anchor="start" x="1412" y="-1334.3" font-family="Times,serif" font-size="14.00">+ reset() : void</text>
<text text-anchor="start" x="1412" y="-1315.3" font-family="Times,serif" font-size="14.00">+ getData() : array</text>
<text text-anchor="start" x="1412" y="-1296.3" font-family="Times,serif" font-size="14.00">+ getVersions() : array</text>
<text text-anchor="start" x="1412" y="-1277.3" font-family="Times,serif" font-size="14.00">+ getExtensions() : array</text>
<text text-anchor="start" x="1412" y="-1258.3" font-family="Times,serif" font-size="14.00">+ getNamespaces() : array</text>
<text text-anchor="start" x="1412" y="-1239.3" font-family="Times,serif" font-size="14.00">+ getClasses() : array</text>
<text text-anchor="start" x="1412" y="-1220.3" font-family="Times,serif" font-size="14.00">+ getInterfaces() : array</text>
<text text-anchor="start" x="1412" y="-1201.3" font-family="Times,serif" font-size="14.00">+ getTraits() : array</text>
<text text-anchor="start" x="1412" y="-1182.3" font-family="Times,serif" font-size="14.00">+ getMethods() : array</text>
<text text-anchor="start" x="1412" y="-1163.3" font-family="Times,serif" font-size="14.00">+ getGenerators() : array</text>
<text text-anchor="start" x="1412" y="-1144.3" font-family="Times,serif" font-size="14.00">+ getFunctions() : array</text>
<text text-anchor="start" x="1412" y="-1125.3" font-family="Times,serif" font-size="14.00">+ getConstants() : array</text>
<text text-anchor="start" x="1412" y="-1106.3" font-family="Times,serif" font-size="14.00">+ getDirectives() : array</text>
<text text-anchor="start" x="1412" y="-1087.3" font-family="Times,serif" font-size="14.00">+ getConditions() : array</text>
</g>
<!-- Bartlett\\CompatInfo\\Application\\DataCollector\\VersionDataCollector&#45;&gt;Bartlett\\CompatInfo\\Application\\DataCollector\\DataCollector -->
<g id="edge13" class="edge">
<title>Bartlett\\CompatInfo\\Application\\DataCollector\\VersionDataCollector&#45;&gt;Bartlett\\CompatInfo\\Application\\DataCollector\\DataCollector</title>
<path fill="none" stroke="black" d="M1558.94,-1074.21C1572.03,-972.5 1588.15,-847.2 1600.08,-754.47"/>
<polygon fill="none" stroke="black" points="1603.57,-754.83 1601.37,-744.47 1596.62,-753.94 1603.57,-754.83"/>
</g>
<!-- Bartlett\\CompatInfo\\Application\\DataCollector\\VersionUpdater -->
<g id="node15" class="node">
<title>Bartlett\\CompatInfo\\Application\\DataCollector\\VersionUpdater</title>
<polygon fill="#fefece" stroke="transparent" points="1380,-1280.5 1234,-1280.5 1234,-1226.5 1380,-1226.5 1380,-1280.5"/>
<polygon fill="#eeeeee" stroke="transparent" points="1242,-1242.5 1242,-1276.5 1372,-1276.5 1372,-1242.5 1242,-1242.5"/>
<polygon fill="none" stroke="black" points="1242,-1242.5 1242,-1276.5 1372,-1276.5 1372,-1242.5 1242,-1242.5"/>
<text text-anchor="start" x="1245" y="-1249.3" font-family="Times,serif" font-weight="bold" font-size="14.00">VersionUpdater</text>
<polygon fill="none" stroke="black" points="1242,-1236.5 1242,-1242.5 1372,-1242.5 1372,-1236.5 1242,-1236.5"/>
<polygon fill="none" stroke="black" points="1242,-1230.5 1242,-1236.5 1372,-1236.5 1372,-1230.5 1242,-1230.5"/>
</g>
<!-- Bartlett\\CompatInfo\\Application\\DataCollector\\Normalizer\\NodeNormalizer -->
<g id="node17" class="node">
<title>Bartlett\\CompatInfo\\Application\\DataCollector\\Normalizer\\NodeNormalizer</title>
<polygon fill="#fefece" stroke="transparent" points="2685,-1752 2213,-1752 2213,-1660 2685,-1660 2685,-1752"/>
<polygon fill="#eeeeee" stroke="transparent" points="2221,-1714 2221,-1748 2677,-1748 2677,-1714 2221,-1714"/>
<polygon fill="none" stroke="black" points="2221,-1714 2221,-1748 2677,-1748 2677,-1714 2221,-1714"/>
<text text-anchor="start" x="2384" y="-1720.8" font-family="Times,serif" font-weight="bold" font-size="14.00">NodeNormalizer</text>
<polygon fill="none" stroke="black" points="2221,-1708 2221,-1714 2677,-1714 2677,-1708 2221,-1708"/>
<polygon fill="none" stroke="black" points="2221,-1664 2221,-1708 2677,-1708 2677,-1664 2221,-1664"/>
<text text-anchor="start" x="2226" y="-1691.8" font-family="Times,serif" font-size="14.00">+ normalize(object, format = «unknown», context : array = [])</text>
<text text-anchor="start" x="2226" y="-1672.8" font-family="Times,serif" font-size="14.00">+ supportsNormalization(data, format = «unknown»)</text>
</g>
<!-- Symfony\\Component\\Serializer\\Normalizer\\NormalizerInterface -->
<g id="node18" class="node">
<title>Symfony\\Component\\Serializer\\Normalizer\\NormalizerInterface</title>
<polygon fill="#fefece" stroke="transparent" points="2782,-1299.5 2116,-1299.5 2116,-1207.5 2782,-1207.5 2782,-1299.5"/>
<polygon fill="#eeeeee" stroke="transparent" points="2124,-1261.5 2124,-1295.5 2774,-1295.5 2774,-1261.5 2124,-1261.5"/>
<polygon fill="none" stroke="black" points="2124,-1261.5 2124,-1295.5 2774,-1295.5 2774,-1261.5 2124,-1261.5"/>
<text text-anchor="start" x="2404" y="-1282.3" font-family="Times,serif" font-weight="bold" font-size="14.00">«interface»</text>
<text text-anchor="start" x="2368" y="-1268.3" font-family="Times,serif" font-weight="bold" font-size="14.00">NormalizerInterface</text>
<polygon fill="none" stroke="black" points="2124,-1255.5 2124,-1261.5 2774,-1261.5 2774,-1255.5 2124,-1255.5"/>
<polygon fill="none" stroke="black" points="2124,-1211.5 2124,-1255.5 2774,-1255.5 2774,-1211.5 2124,-1211.5"/>
<text text-anchor="start" x="2129" y="-1239.3" font-family="Times,serif" font-size="14.00">+ «abstract» normalize(object : mixed, format : string = «unknown», context : array = [])</text>
<text text-anchor="start" x="2129" y="-1220.3" font-family="Times,serif" font-size="14.00">+ «abstract» supportsNormalization(data : mixed, format : string = «unknown»)</text>
</g>
<!-- Bartlett\\CompatInfo\\Application\\DataCollector\\Normalizer\\NodeNormalizer&#45;&gt;Symfony\\Component\\Serializer\\Normalizer\\NormalizerInterface -->
<g id="edge11" class="edge">
<title>Bartlett\\CompatInfo\\Application\\DataCollector\\Normalizer\\NodeNormalizer&#45;&gt;Symfony\\Component\\Serializer\\Normalizer\\NormalizerInterface</title>
<path fill="none" stroke="black" stroke-dasharray="5,2" d="M2449,-1659.74C2449,-1576.6 2449,-1399.82 2449,-1309.75"/>
<polygon fill="none" stroke="black" points="2452.5,-1309.73 2449,-1299.73 2445.5,-1309.73 2452.5,-1309.73"/>
</g>
</g>
</svg>
