<?xml version="1.0" encoding="UTF-8" standalone="no"?>
<!DOCTYPE svg PUBLIC "-//W3C//DTD SVG 1.1//EN"
 "http://www.w3.org/Graphics/SVG/1.1/DTD/svg11.dtd">
<!-- Generated by graphviz version 2.43.0 (0)
 -->
<!-- Title: %3 Pages: 1 -->
<svg width="2791pt" height="1650pt"
 viewBox="0.00 0.00 2791.00 1650.00" xmlns="http://www.w3.org/2000/svg" xmlns:xlink="http://www.w3.org/1999/xlink">
<g id="graph0" class="graph" transform="scale(1 1) rotate(0) translate(4 1646)">
<title>%3</title>
<g id="clust1" class="cluster">
<title>cluster_0</title>
<polygon fill="#cdaa7d" stroke="black" points="597,-1106 597,-1634 2775,-1634 2775,-1106 597,-1106"/>
<text text-anchor="middle" x="1686" y="-1618.8" font-family="Times,serif" font-size="14.00">Bartlett\CompatInfo\Application\Collection</text>
</g>
<g id="clust2" class="cluster">
<title>cluster_1</title>
<polygon fill="transparent" stroke="black" points="121,-275 121,-1503 589,-1503 589,-275 121,-275"/>
<text text-anchor="middle" x="355" y="-1487.8" font-family="Times,serif" font-size="14.00">Doctrine\Common\Collections</text>
</g>
<g id="clust3" class="cluster">
<title>cluster_2</title>
<polygon fill="transparent" stroke="black" points="8,-8 8,-267 733,-267 733,-8 8,-8"/>
<text text-anchor="middle" x="370.5" y="-251.8" font-family="Times,serif" font-size="14.00">0</text>
</g>
<!-- Bartlett\\CompatInfo\\Application\\Collection\\ReferenceCollection -->
<g id="node1" class="node">
<title>Bartlett\\CompatInfo\\Application\\Collection\\ReferenceCollection</title>
<polygon fill="#fefece" stroke="transparent" points="2507,-1603 605,-1603 605,-1511 2507,-1511 2507,-1603"/>
<polygon fill="#eeeeee" stroke="transparent" points="613,-1565 613,-1599 2499,-1599 2499,-1565 613,-1565"/>
<polygon fill="none" stroke="black" points="613,-1565 613,-1599 2499,-1599 2499,-1565 613,-1565"/>
<text text-anchor="start" x="1476" y="-1571.8" font-family="Times,serif" font-weight="bold" font-size="14.00">ReferenceCollection</text>
<polygon fill="none" stroke="black" points="613,-1559 613,-1565 2499,-1565 2499,-1559 613,-1559"/>
<polygon fill="none" stroke="black" points="613,-1515 613,-1559 2499,-1559 2499,-1515 613,-1515"/>
<text text-anchor="start" x="618" y="-1542.8" font-family="Times,serif" font-size="14.00">+ __construct(classRepository : Bartlett\CompatInfoDb\Domain\Repository\ClassRepository, constantRepository : Bartlett\CompatInfoDb\Domain\Repository\ConstantRepository, functionRepository : Bartlett\CompatInfoDb\Domain\Repository\FunctionRepository)</text>
<text text-anchor="start" x="618" y="-1523.8" font-family="Times,serif" font-size="14.00">+ find(group : string, key : string, argc : int = 0, extra : string = «unknown») : array</text>
</g>
<!-- Bartlett\\CompatInfo\\Application\\Collection\\ReferenceCollectionInterface -->
<g id="node2" class="node">
<title>Bartlett\\CompatInfo\\Application\\Collection\\ReferenceCollectionInterface</title>
<polygon fill="#fefece" stroke="transparent" points="1612.5,-1187 903.5,-1187 903.5,-1114 1612.5,-1114 1612.5,-1187"/>
<polygon fill="#eeeeee" stroke="transparent" points="912,-1148.5 912,-1182.5 1605,-1182.5 1605,-1148.5 912,-1148.5"/>
<polygon fill="none" stroke="black" points="912,-1148.5 912,-1182.5 1605,-1182.5 1605,-1148.5 912,-1148.5"/>
<text text-anchor="start" x="1213.5" y="-1169.3" font-family="Times,serif" font-weight="bold" font-size="14.00">«interface»</text>
<text text-anchor="start" x="1142" y="-1155.3" font-family="Times,serif" font-weight="bold" font-size="14.00">ReferenceCollectionInterface</text>
<polygon fill="none" stroke="black" points="912,-1142.5 912,-1148.5 1605,-1148.5 1605,-1142.5 912,-1142.5"/>
<polygon fill="none" stroke="black" points="912,-1117.5 912,-1142.5 1605,-1142.5 1605,-1117.5 912,-1117.5"/>
<text text-anchor="start" x="917" y="-1126.3" font-family="Times,serif" font-size="14.00">+ «abstract» find(group : string, key : string, argc : int = 0, extra : string = «unknown») : array</text>
</g>
<!-- Bartlett\\CompatInfo\\Application\\Collection\\ReferenceCollection&#45;&gt;Bartlett\\CompatInfo\\Application\\Collection\\ReferenceCollectionInterface -->
<g id="edge8" class="edge">
<title>Bartlett\\CompatInfo\\Application\\Collection\\ReferenceCollection&#45;&gt;Bartlett\\CompatInfo\\Application\\Collection\\ReferenceCollectionInterface</title>
<path fill="none" stroke="black" stroke-dasharray="5,2" d="M1522.68,-1510.78C1464.95,-1432.41 1347.03,-1272.35 1290.13,-1195.12"/>
<polygon fill="none" stroke="black" points="1292.91,-1192.99 1284.16,-1187.01 1287.27,-1197.14 1292.91,-1192.99"/>
</g>
<!-- Doctrine\\Common\\Collections\\AbstractLazyCollection -->
<g id="node5" class="node">
<title>Doctrine\\Common\\Collections\\AbstractLazyCollection</title>
<polygon fill="#fefece" stroke="transparent" points="538,-1472 256,-1472 256,-829 538,-829 538,-1472"/>
<polygon fill="#eeeeee" stroke="transparent" points="264,-1433.5 264,-1467.5 530,-1467.5 530,-1433.5 264,-1433.5"/>
<polygon fill="none" stroke="black" points="264,-1433.5 264,-1467.5 530,-1467.5 530,-1433.5 264,-1433.5"/>
<text text-anchor="start" x="355" y="-1454.3" font-family="Times,serif" font-weight="bold" font-size="14.00">«abstract»</text>
<text text-anchor="start" x="306" y="-1440.3" font-family="Times,serif" font-weight="bold" font-size="14.00">AbstractLazyCollection</text>
<polygon fill="none" stroke="black" points="264,-1427.5 264,-1433.5 530,-1433.5 530,-1427.5 264,-1427.5"/>
<polygon fill="none" stroke="black" points="264,-832.5 264,-1427.5 530,-1427.5 530,-832.5 264,-832.5"/>
<text text-anchor="start" x="269" y="-1411.3" font-family="Times,serif" font-size="14.00">+ count()</text>
<text text-anchor="start" x="269" y="-1392.3" font-family="Times,serif" font-size="14.00">+ add(element)</text>
<text text-anchor="start" x="269" y="-1373.3" font-family="Times,serif" font-size="14.00">+ clear()</text>
<text text-anchor="start" x="269" y="-1354.3" font-family="Times,serif" font-size="14.00">+ contains(element)</text>
<text text-anchor="start" x="269" y="-1335.3" font-family="Times,serif" font-size="14.00">+ isEmpty()</text>
<text text-anchor="start" x="269" y="-1316.3" font-family="Times,serif" font-size="14.00">+ remove(key)</text>
<text text-anchor="start" x="269" y="-1297.3" font-family="Times,serif" font-size="14.00">+ removeElement(element)</text>
<text text-anchor="start" x="269" y="-1278.3" font-family="Times,serif" font-size="14.00">+ containsKey(key)</text>
<text text-anchor="start" x="269" y="-1259.3" font-family="Times,serif" font-size="14.00">+ get(key)</text>
<text text-anchor="start" x="269" y="-1240.3" font-family="Times,serif" font-size="14.00">+ getKeys()</text>
<text text-anchor="start" x="269" y="-1221.3" font-family="Times,serif" font-size="14.00">+ getValues()</text>
<text text-anchor="start" x="269" y="-1202.3" font-family="Times,serif" font-size="14.00">+ set(key, value)</text>
<text text-anchor="start" x="269" y="-1183.3" font-family="Times,serif" font-size="14.00">+ toArray()</text>
<text text-anchor="start" x="269" y="-1164.3" font-family="Times,serif" font-size="14.00">+ first()</text>
<text text-anchor="start" x="269" y="-1145.3" font-family="Times,serif" font-size="14.00">+ last()</text>
<text text-anchor="start" x="269" y="-1126.3" font-family="Times,serif" font-size="14.00">+ key()</text>
<text text-anchor="start" x="269" y="-1107.3" font-family="Times,serif" font-size="14.00">+ current()</text>
<text text-anchor="start" x="269" y="-1088.3" font-family="Times,serif" font-size="14.00">+ next()</text>
<text text-anchor="start" x="269" y="-1069.3" font-family="Times,serif" font-size="14.00">+ exists(p : Closure)</text>
<text text-anchor="start" x="269" y="-1050.3" font-family="Times,serif" font-size="14.00">+ filter(p : Closure)</text>
<text text-anchor="start" x="269" y="-1031.3" font-family="Times,serif" font-size="14.00">+ forAll(p : Closure)</text>
<text text-anchor="start" x="269" y="-1012.3" font-family="Times,serif" font-size="14.00">+ map(func : Closure)</text>
<text text-anchor="start" x="269" y="-993.3" font-family="Times,serif" font-size="14.00">+ partition(p : Closure)</text>
<text text-anchor="start" x="269" y="-974.3" font-family="Times,serif" font-size="14.00">+ indexOf(element)</text>
<text text-anchor="start" x="269" y="-955.3" font-family="Times,serif" font-size="14.00">+ slice(offset, length = «unknown»)</text>
<text text-anchor="start" x="269" y="-936.3" font-family="Times,serif" font-size="14.00">+ getIterator()</text>
<text text-anchor="start" x="269" y="-917.3" font-family="Times,serif" font-size="14.00">+ offsetExists(offset)</text>
<text text-anchor="start" x="269" y="-898.3" font-family="Times,serif" font-size="14.00">+ offsetGet(offset : mixed)</text>
<text text-anchor="start" x="269" y="-879.3" font-family="Times,serif" font-size="14.00">+ offsetSet(offset, value)</text>
<text text-anchor="start" x="269" y="-860.3" font-family="Times,serif" font-size="14.00">+ offsetUnset(offset)</text>
<text text-anchor="start" x="269" y="-841.3" font-family="Times,serif" font-size="14.00">+ isInitialized()</text>
</g>
<!-- Bartlett\\CompatInfo\\Application\\Collection\\ReferenceCollection&#45;&gt;Doctrine\\Common\\Collections\\AbstractLazyCollection -->
<g id="edge6" class="edge">
<title>Bartlett\\CompatInfo\\Application\\Collection\\ReferenceCollection&#45;&gt;Doctrine\\Common\\Collections\\AbstractLazyCollection</title>
<path fill="none" stroke="black" d="M611.71,-1510.89C603.74,-1508.4 597.44,-1505.77 593,-1503 575.69,-1492.18 559.77,-1479.25 545.16,-1464.84"/>
<polygon fill="none" stroke="black" points="547.6,-1462.32 538.1,-1457.64 542.61,-1467.23 547.6,-1462.32"/>
</g>
<!-- Doctrine\\Common\\Collections\\Collection -->
<g id="node6" class="node">
<title>Doctrine\\Common\\Collections\\Collection</title>
<polygon fill="#fefece" stroke="transparent" points="581.5,-793 128.5,-793 128.5,-283 581.5,-283 581.5,-793"/>
<polygon fill="#eeeeee" stroke="transparent" points="137,-755 137,-789 574,-789 574,-755 137,-755"/>
<polygon fill="none" stroke="black" points="137,-755 137,-789 574,-789 574,-755 137,-755"/>
<text text-anchor="start" x="310.5" y="-775.8" font-family="Times,serif" font-weight="bold" font-size="14.00">«interface»</text>
<text text-anchor="start" x="315.5" y="-761.8" font-family="Times,serif" font-weight="bold" font-size="14.00">Collection</text>
<polygon fill="none" stroke="black" points="137,-749 137,-755 574,-755 574,-749 137,-749"/>
<polygon fill="none" stroke="black" points="137,-287 137,-749 574,-749 574,-287 137,-287"/>
<text text-anchor="start" x="142" y="-732.8" font-family="Times,serif" font-size="14.00">+ «abstract» add(element : mixed)</text>
<text text-anchor="start" x="142" y="-713.8" font-family="Times,serif" font-size="14.00">+ «abstract» clear()</text>
<text text-anchor="start" x="142" y="-694.8" font-family="Times,serif" font-size="14.00">+ «abstract» contains(element : mixed)</text>
<text text-anchor="start" x="142" y="-675.8" font-family="Times,serif" font-size="14.00">+ «abstract» isEmpty()</text>
<text text-anchor="start" x="142" y="-656.8" font-family="Times,serif" font-size="14.00">+ «abstract» remove(key : mixed)</text>
<text text-anchor="start" x="142" y="-637.8" font-family="Times,serif" font-size="14.00">+ «abstract» removeElement(element : mixed)</text>
<text text-anchor="start" x="142" y="-618.8" font-family="Times,serif" font-size="14.00">+ «abstract» containsKey(key : mixed)</text>
<text text-anchor="start" x="142" y="-599.8" font-family="Times,serif" font-size="14.00">+ «abstract» get(key : mixed)</text>
<text text-anchor="start" x="142" y="-580.8" font-family="Times,serif" font-size="14.00">+ «abstract» getKeys()</text>
<text text-anchor="start" x="142" y="-561.8" font-family="Times,serif" font-size="14.00">+ «abstract» getValues()</text>
<text text-anchor="start" x="142" y="-542.8" font-family="Times,serif" font-size="14.00">+ «abstract» set(key : mixed, value : mixed)</text>
<text text-anchor="start" x="142" y="-523.8" font-family="Times,serif" font-size="14.00">+ «abstract» toArray()</text>
<text text-anchor="start" x="142" y="-504.8" font-family="Times,serif" font-size="14.00">+ «abstract» first()</text>
<text text-anchor="start" x="142" y="-485.8" font-family="Times,serif" font-size="14.00">+ «abstract» last()</text>
<text text-anchor="start" x="142" y="-466.8" font-family="Times,serif" font-size="14.00">+ «abstract» key()</text>
<text text-anchor="start" x="142" y="-447.8" font-family="Times,serif" font-size="14.00">+ «abstract» current()</text>
<text text-anchor="start" x="142" y="-428.8" font-family="Times,serif" font-size="14.00">+ «abstract» next()</text>
<text text-anchor="start" x="142" y="-409.8" font-family="Times,serif" font-size="14.00">+ «abstract» exists(p : Closure)</text>
<text text-anchor="start" x="142" y="-390.8" font-family="Times,serif" font-size="14.00">+ «abstract» filter(p : Closure)</text>
<text text-anchor="start" x="142" y="-371.8" font-family="Times,serif" font-size="14.00">+ «abstract» forAll(p : Closure)</text>
<text text-anchor="start" x="142" y="-352.8" font-family="Times,serif" font-size="14.00">+ «abstract» map(func : Closure)</text>
<text text-anchor="start" x="142" y="-333.8" font-family="Times,serif" font-size="14.00">+ «abstract» partition(p : Closure)</text>
<text text-anchor="start" x="142" y="-314.8" font-family="Times,serif" font-size="14.00">+ «abstract» indexOf(element : mixed)</text>
<text text-anchor="start" x="142" y="-295.8" font-family="Times,serif" font-size="14.00">+ «abstract» slice(offset : int, length : mixed = «unknown»)</text>
</g>
<!-- Bartlett\\CompatInfo\\Application\\Collection\\ReferenceCollectionInterface&#45;&gt;Doctrine\\Common\\Collections\\Collection -->
<g id="edge7" class="edge">
<title>Bartlett\\CompatInfo\\Application\\Collection\\ReferenceCollectionInterface&#45;&gt;Doctrine\\Common\\Collections\\Collection</title>
<path fill="none" stroke="black" stroke-dasharray="5,2" d="M1189.81,-1113.95C1075.77,-1053.45 840.66,-924.22 656,-793 634.03,-777.39 611.7,-760.57 589.62,-743.28"/>
<polygon fill="none" stroke="black" points="591.53,-740.32 581.51,-736.88 587.2,-745.82 591.53,-740.32"/>
</g>
<!-- Bartlett\\CompatInfo\\Application\\Collection\\SniffCollection -->
<g id="node3" class="node">
<title>Bartlett\\CompatInfo\\Application\\Collection\\SniffCollection</title>
<polygon fill="#fefece" stroke="transparent" points="2767,-1603 2525,-1603 2525,-1511 2767,-1511 2767,-1603"/>
<polygon fill="#eeeeee" stroke="transparent" points="2533,-1565 2533,-1599 2759,-1599 2759,-1565 2533,-1565"/>
<polygon fill="none" stroke="black" points="2533,-1565 2533,-1599 2759,-1599 2759,-1565 2533,-1565"/>
<text text-anchor="start" x="2587.5" y="-1571.8" font-family="Times,serif" font-weight="bold" font-size="14.00">SniffCollection</text>
<polygon fill="none" stroke="black" points="2533,-1559 2533,-1565 2759,-1565 2759,-1559 2533,-1559"/>
<polygon fill="none" stroke="black" points="2533,-1515 2533,-1559 2759,-1559 2759,-1515 2533,-1515"/>
<text text-anchor="start" x="2538" y="-1542.8" font-family="Times,serif" font-size="14.00">+ __construct(sniffs : iterable)</text>
<text text-anchor="start" x="2538" y="-1523.8" font-family="Times,serif" font-size="14.00">+ getIterator() : Traversable</text>
</g>
<!-- Bartlett\\CompatInfo\\Application\\Collection\\SniffCollectionInterface -->
<g id="node4" class="node">
<title>Bartlett\\CompatInfo\\Application\\Collection\\SniffCollectionInterface</title>
<polygon fill="#fefece" stroke="transparent" points="2297,-1177.5 2085,-1177.5 2085,-1123.5 2297,-1123.5 2297,-1177.5"/>
<polygon fill="#eeeeee" stroke="transparent" points="2093,-1139.5 2093,-1173.5 2289,-1173.5 2289,-1139.5 2093,-1139.5"/>
<polygon fill="none" stroke="black" points="2093,-1139.5 2093,-1173.5 2289,-1173.5 2289,-1139.5 2093,-1139.5"/>
<text text-anchor="start" x="2146" y="-1160.3" font-family="Times,serif" font-weight="bold" font-size="14.00">«interface»</text>
<text text-anchor="start" x="2096" y="-1146.3" font-family="Times,serif" font-weight="bold" font-size="14.00">SniffCollectionInterface</text>
<polygon fill="none" stroke="black" points="2093,-1133.5 2093,-1139.5 2289,-1139.5 2289,-1133.5 2093,-1133.5"/>
<polygon fill="none" stroke="black" points="2093,-1127.5 2093,-1133.5 2289,-1133.5 2289,-1127.5 2093,-1127.5"/>
</g>
<!-- Bartlett\\CompatInfo\\Application\\Collection\\SniffCollection&#45;&gt;Bartlett\\CompatInfo\\Application\\Collection\\SniffCollectionInterface -->
<g id="edge10" class="edge">
<title>Bartlett\\CompatInfo\\Application\\Collection\\SniffCollection&#45;&gt;Bartlett\\CompatInfo\\Application\\Collection\\SniffCollectionInterface</title>
<path fill="none" stroke="black" stroke-dasharray="5,2" d="M2595.13,-1510.78C2502.57,-1428.49 2308.74,-1256.17 2227.77,-1184.19"/>
<polygon fill="none" stroke="black" points="2230.09,-1181.57 2220.29,-1177.54 2225.44,-1186.8 2230.09,-1181.57"/>
</g>
<!-- IteratorAggregate -->
<g id="node8" class="node">
<title>IteratorAggregate</title>
<polygon fill="#fefece" stroke="transparent" points="725.5,-207.5 512.5,-207.5 512.5,-134.5 725.5,-134.5 725.5,-207.5"/>
<polygon fill="#eeeeee" stroke="transparent" points="521,-169 521,-203 718,-203 718,-169 521,-169"/>
<polygon fill="none" stroke="black" points="521,-169 521,-203 718,-203 718,-169 521,-169"/>
<text text-anchor="start" x="574.5" y="-189.8" font-family="Times,serif" font-weight="bold" font-size="14.00">«interface»</text>
<text text-anchor="start" x="547.5" y="-175.8" font-family="Times,serif" font-weight="bold" font-size="14.00">IteratorAggregate</text>
<polygon fill="none" stroke="black" points="521,-163 521,-169 718,-169 718,-163 521,-163"/>
<polygon fill="none" stroke="black" points="521,-138 521,-163 718,-163 718,-138 521,-138"/>
<text text-anchor="start" x="526" y="-146.8" font-family="Times,serif" font-size="14.00">+ «abstract» getIterator()</text>
</g>
<!-- Bartlett\\CompatInfo\\Application\\Collection\\SniffCollectionInterface&#45;&gt;IteratorAggregate -->
<g id="edge9" class="edge">
<title>Bartlett\\CompatInfo\\Application\\Collection\\SniffCollectionInterface&#45;&gt;IteratorAggregate</title>
<path fill="none" stroke="black" stroke-dasharray="5,2" d="M2148.95,-1123.35C1933.15,-989.16 949.83,-377.71 684.91,-212.98"/>
<polygon fill="none" stroke="black" points="686.5,-209.85 676.16,-207.54 682.81,-215.8 686.5,-209.85"/>
</g>
<!-- Doctrine\\Common\\Collections\\AbstractLazyCollection&#45;&gt;Doctrine\\Common\\Collections\\Collection -->
<g id="edge5" class="edge">
<title>Doctrine\\Common\\Collections\\AbstractLazyCollection&#45;&gt;Doctrine\\Common\\Collections\\Collection</title>
<path fill="none" stroke="black" stroke-dasharray="5,2" d="M374.92,-828.61C374.35,-820.22 373.77,-811.86 373.2,-803.53"/>
<polygon fill="none" stroke="black" points="376.68,-803.14 372.5,-793.4 369.7,-803.62 376.68,-803.14"/>
</g>
<!-- Countable -->
<g id="node7" class="node">
<title>Countable</title>
<polygon fill="#fefece" stroke="transparent" points="494,-207.5 320,-207.5 320,-134.5 494,-134.5 494,-207.5"/>
<polygon fill="#eeeeee" stroke="transparent" points="328,-169 328,-203 486,-203 486,-169 328,-169"/>
<polygon fill="none" stroke="black" points="328,-169 328,-203 486,-203 486,-169 328,-169"/>
<text text-anchor="start" x="362" y="-189.8" font-family="Times,serif" font-weight="bold" font-size="14.00">«interface»</text>
<text text-anchor="start" x="366" y="-175.8" font-family="Times,serif" font-weight="bold" font-size="14.00">Countable</text>
<polygon fill="none" stroke="black" points="328,-163 328,-169 486,-169 486,-163 328,-163"/>
<polygon fill="none" stroke="black" points="328,-138 328,-163 486,-163 486,-138 328,-138"/>
<text text-anchor="start" x="333" y="-146.8" font-family="Times,serif" font-size="14.00">+ «abstract» count()</text>
</g>
<!-- Doctrine\\Common\\Collections\\Collection&#45;&gt;Countable -->
<g id="edge1" class="edge">
<title>Doctrine\\Common\\Collections\\Collection&#45;&gt;Countable</title>
<path fill="none" stroke="black" stroke-dasharray="5,2" d="M391.19,-283C394.7,-258.37 397.91,-235.8 400.51,-217.54"/>
<polygon fill="none" stroke="black" points="403.99,-217.97 401.93,-207.58 397.06,-216.99 403.99,-217.97"/>
</g>
<!-- Doctrine\\Common\\Collections\\Collection&#45;&gt;IteratorAggregate -->
<g id="edge3" class="edge">
<title>Doctrine\\Common\\Collections\\Collection&#45;&gt;IteratorAggregate</title>
<path fill="none" stroke="black" stroke-dasharray="5,2" d="M538.72,-283C557.11,-257.57 573.91,-234.33 587.34,-215.77"/>
<polygon fill="none" stroke="black" points="590.24,-217.73 593.27,-207.58 584.57,-213.63 590.24,-217.73"/>
</g>
<!-- ArrayAccess -->
<g id="node10" class="node">
<title>ArrayAccess</title>
<polygon fill="#fefece" stroke="transparent" points="301.5,-236 16.5,-236 16.5,-106 301.5,-106 301.5,-236"/>
<polygon fill="#eeeeee" stroke="transparent" points="25,-198 25,-232 294,-232 294,-198 25,-198"/>
<polygon fill="none" stroke="black" points="25,-198 25,-232 294,-232 294,-198 25,-198"/>
<text text-anchor="start" x="114.5" y="-218.8" font-family="Times,serif" font-weight="bold" font-size="14.00">«interface»</text>
<text text-anchor="start" x="111.5" y="-204.8" font-family="Times,serif" font-weight="bold" font-size="14.00">ArrayAccess</text>
<polygon fill="none" stroke="black" points="25,-192 25,-198 294,-198 294,-192 25,-192"/>
<polygon fill="none" stroke="black" points="25,-110 25,-192 294,-192 294,-110 25,-110"/>
<text text-anchor="start" x="30" y="-175.8" font-family="Times,serif" font-size="14.00">+ «abstract» offsetExists(offset)</text>
<text text-anchor="start" x="30" y="-156.8" font-family="Times,serif" font-size="14.00">+ «abstract» offsetGet(offset)</text>
<text text-anchor="start" x="30" y="-137.8" font-family="Times,serif" font-size="14.00">+ «abstract» offsetSet(offset, value)</text>
<text text-anchor="start" x="30" y="-118.8" font-family="Times,serif" font-size="14.00">+ «abstract» offsetUnset(offset)</text>
</g>
<!-- Doctrine\\Common\\Collections\\Collection&#45;&gt;ArrayAccess -->
<g id="edge4" class="edge">
<title>Doctrine\\Common\\Collections\\Collection&#45;&gt;ArrayAccess</title>
<path fill="none" stroke="black" stroke-dasharray="5,2" d="M218.6,-283C211.4,-269.58 204.52,-256.76 198.16,-244.93"/>
<polygon fill="none" stroke="black" points="201.22,-243.23 193.41,-236.08 195.06,-246.54 201.22,-243.23"/>
</g>
<!-- Traversable -->
<g id="node9" class="node">
<title>Traversable</title>
<polygon fill="#fefece" stroke="transparent" points="676.5,-70 561.5,-70 561.5,-16 676.5,-16 676.5,-70"/>
<polygon fill="#eeeeee" stroke="transparent" points="570,-32 570,-66 669,-66 669,-32 570,-32"/>
<polygon fill="none" stroke="black" points="570,-32 570,-66 669,-66 669,-32 570,-32"/>
<text text-anchor="start" x="574.5" y="-52.8" font-family="Times,serif" font-weight="bold" font-size="14.00">«interface»</text>
<text text-anchor="start" x="573" y="-38.8" font-family="Times,serif" font-weight="bold" font-size="14.00">Traversable</text>
<polygon fill="none" stroke="black" points="570,-26 570,-32 669,-32 669,-26 570,-26"/>
<polygon fill="none" stroke="black" points="570,-20 570,-26 669,-26 669,-20 570,-20"/>
</g>
<!-- IteratorAggregate&#45;&gt;Traversable -->
<g id="edge2" class="edge">
<title>IteratorAggregate&#45;&gt;Traversable</title>
<path fill="none" stroke="black" stroke-dasharray="5,2" d="M619,-134.23C619,-117.36 619,-97.26 619,-80.32"/>
<polygon fill="none" stroke="black" points="622.5,-80.24 619,-70.24 615.5,-80.24 622.5,-80.24"/>
</g>
</g>
</svg>
