<?xml version="1.0" encoding="UTF-8" standalone="no"?>
<!DOCTYPE svg PUBLIC "-//W3C//DTD SVG 1.1//EN"
 "http://www.w3.org/Graphics/SVG/1.1/DTD/svg11.dtd">
<!-- Generated by graphviz version 2.43.0 (0)
 -->
<!-- Title: %3 Pages: 1 -->
<svg width="960pt" height="258pt"
 viewBox="0.00 0.00 960.00 258.00" xmlns="http://www.w3.org/2000/svg" xmlns:xlink="http://www.w3.org/1999/xlink">
<g id="graph0" class="graph" transform="scale(1 1) rotate(0) translate(4 254)">
<title>%3</title>
<g id="clust1" class="cluster">
<title>cluster_0</title>
<polygon fill="#cdaa7d" stroke="black" points="112.5,-8 112.5,-121 839.5,-121 839.5,-8 112.5,-8"/>
<text text-anchor="middle" x="476" y="-105.8" font-family="Times,serif" font-size="14.00">Bartlett\CompatInfo\Infrastructure\Framework\Symfony\DependencyInjection</text>
</g>
<g id="clust2" class="cluster">
<title>cluster_1</title>
<polygon fill="#cdaa7d" stroke="black" points="8,-129 8,-242 944,-242 944,-129 8,-129"/>
<text text-anchor="middle" x="476" y="-226.8" font-family="Times,serif" font-size="14.00">Bartlett\CompatInfo\Infrastructure\Framework\Symfony</text>
</g>
<!-- Bartlett\\CompatInfo\\Infrastructure\\Framework\\Symfony\\DependencyInjection\\ContainerFactory -->
<g id="node1" class="node">
<title>Bartlett\\CompatInfo\\Infrastructure\\Framework\\Symfony\\DependencyInjection\\ContainerFactory</title>
<polygon fill="#fefece" stroke="transparent" points="831.5,-89.5 120.5,-89.5 120.5,-16.5 831.5,-16.5 831.5,-89.5"/>
<polygon fill="#eeeeee" stroke="transparent" points="129,-51 129,-85 824,-85 824,-51 129,-51"/>
<polygon fill="none" stroke="black" points="129,-51 129,-85 824,-85 824,-51 129,-51"/>
<text text-anchor="start" x="408" y="-57.8" font-family="Times,serif" font-weight="bold" font-size="14.00">ContainerFactory</text>
<polygon fill="none" stroke="black" points="129,-45 129,-51 824,-51 824,-45 129,-45"/>
<polygon fill="none" stroke="black" points="129,-20 129,-45 824,-45 824,-20 129,-20"/>
<text text-anchor="start" x="134" y="-28.8" font-family="Times,serif" font-size="14.00">+ create(set : string = &#39;default&#39;) : Symfony\Component\DependencyInjection\ContainerInterface</text>
</g>
<!-- Bartlett\\CompatInfo\\Infrastructure\\Framework\\Symfony\\Polyfill -->
<g id="node2" class="node">
<title>Bartlett\\CompatInfo\\Infrastructure\\Framework\\Symfony\\Polyfill</title>
<polygon fill="#fefece" stroke="transparent" points="936,-210.5 16,-210.5 16,-137.5 936,-137.5 936,-210.5"/>
<polygon fill="#eeeeee" stroke="transparent" points="24,-172 24,-206 928,-206 928,-172 24,-172"/>
<polygon fill="none" stroke="black" points="24,-172 24,-206 928,-206 928,-172 24,-172"/>
<text text-anchor="start" x="448.5" y="-178.8" font-family="Times,serif" font-weight="bold" font-size="14.00">Polyfill</text>
<polygon fill="none" stroke="black" points="24,-166 24,-172 928,-172 928,-166 24,-166"/>
<polygon fill="none" stroke="black" points="24,-141 24,-166 928,-166 928,-141 24,-141"/>
<text text-anchor="start" x="29" y="-149.8" font-family="Times,serif" font-size="14.00">+ «static» service(serviceId : string) : Symfony\Component\DependencyInjection\Loader\Configurator\ReferenceConfigurator</text>
</g>
</g>
</svg>
